<svg width="140" height="160" xmlns="http://www.w3.org/2000/svg"><path d="M71.36 4.247A2.364 2.364 0 0169 6.615a2.365 2.365 0 01-2.363-2.368A2.365 2.365 0 0169 1.877a2.364 2.364 0 012.362 2.37m-13.123 7.639a2.364 2.364 0 01-2.362 2.368 2.364 2.364 0 01-2.363-2.368 2.366 2.366 0 012.363-2.368 2.366 2.366 0 012.362 2.368m26.246 0a2.364 2.364 0 11-4.727 0 2.366 2.366 0 012.363-2.368 2.367 2.367 0 012.364 2.368m-39.368 7.641a2.364 2.364 0 01-2.363 2.368 2.366 2.366 0 01-2.363-2.368 2.366 2.366 0 012.363-2.37 2.365 2.365 0 012.363 2.37m26.243-.002c0 1.31-1.056 2.37-2.361 2.37a2.365 2.365 0 01-2.363-2.37 2.365 2.365 0 012.363-2.367 2.364 2.364 0 012.362 2.367m13.124 7.639c0 1.31-1.059 2.37-2.364 2.37a2.366 2.366 0 01-2.363-2.37 2.367 2.367 0 012.363-2.369 2.367 2.367 0 012.364 2.37m26.245-.001c0 1.31-1.057 2.37-2.362 2.37a2.365 2.365 0 01-2.363-2.37 2.366 2.366 0 012.363-2.369 2.366 2.366 0 012.362 2.37m-78.734.001a2.365 2.365 0 11-4.727 0 2.365 2.365 0 012.364-2.369 2.366 2.366 0 012.363 2.37m26.243-.003c0 1.31-1.057 2.37-2.362 2.37a2.365 2.365 0 01-2.363-2.37 2.366 2.366 0 012.363-2.369 2.366 2.366 0 012.362 2.37m13.121 7.641a2.364 2.364 0 01-2.359 2.369 2.366 2.366 0 01-2.365-2.37A2.367 2.367 0 0169 32.436a2.365 2.365 0 012.36 2.37m52.493 0a2.365 2.365 0 11-4.727 0 2.368 2.368 0 012.364-2.37 2.366 2.366 0 012.363 2.37m-104.98 0a2.365 2.365 0 01-2.364 2.369 2.364 2.364 0 01-2.36-2.37 2.366 2.366 0 012.36-2.37 2.366 2.366 0 012.364 2.37m26.244.001a2.365 2.365 0 01-2.363 2.369 2.366 2.366 0 01-2.363-2.37 2.367 2.367 0 012.363-2.37 2.366 2.366 0 012.363 2.37m13.122 7.64a2.366 2.366 0 01-2.362 2.37 2.366 2.366 0 01-2.363-2.37 2.366 2.366 0 012.363-2.37 2.366 2.366 0 012.362 2.37m26.246 0a2.367 2.367 0 01-2.364 2.37 2.366 2.366 0 01-2.363-2.37 2.366 2.366 0 012.363-2.37 2.368 2.368 0 012.364 2.37m26.245 0a2.366 2.366 0 01-2.364 2.37 2.365 2.365 0 01-2.36-2.37 2.366 2.366 0 012.36-2.37 2.366 2.366 0 012.364 2.37m26.246 0a2.367 2.367 0 01-2.363 2.37 2.367 2.367 0 01-2.363-2.37 2.367 2.367 0 012.363-2.37 2.367 2.367 0 012.363 2.37m-131.225 0a2.367 2.367 0 01-2.363 2.37 2.367 2.367 0 01-2.364-2.37 2.368 2.368 0 012.364-2.37 2.367 2.367 0 012.363 2.37m26.243 0a2.365 2.365 0 01-2.36 2.37 2.366 2.366 0 01-2.365-2.37 2.366 2.366 0 012.364-2.37 2.366 2.366 0 012.361 2.37m13.123 7.64a2.367 2.367 0 01-2.363 2.37 2.367 2.367 0 01-2.363-2.37c0-1.31 1.06-2.37 2.363-2.37a2.365 2.365 0 012.363 2.37m26.243 0a2.366 2.366 0 01-2.36 2.37 2.367 2.367 0 01-2.363-2.37c0-1.31 1.058-2.37 2.363-2.37a2.365 2.365 0 012.362 2.37m52.491 0a2.366 2.366 0 01-2.363 2.37 2.367 2.367 0 01-2.364-2.37c0-1.31 1.059-2.37 2.364-2.37a2.365 2.365 0 012.363 2.37m-104.98 0a2.367 2.367 0 01-2.364 2.37 2.367 2.367 0 01-2.363-2.37c0-1.31 1.06-2.37 2.363-2.37a2.366 2.366 0 012.364 2.37M58.239 57.7a2.364 2.364 0 01-2.362 2.37 2.364 2.364 0 01-2.363-2.37 2.364 2.364 0 012.363-2.367 2.364 2.364 0 012.362 2.367m26.246 0a2.364 2.364 0 11-4.727 0 2.364 2.364 0 114.727 0m26.245 0a2.364 2.364 0 01-2.364 2.37 2.364 2.364 0 01-2.36-2.37 2.364 2.364 0 114.724 0m26.246 0a2.365 2.365 0 01-2.363 2.37 2.365 2.365 0 01-2.363-2.37 2.365 2.365 0 012.363-2.367 2.365 2.365 0 012.363 2.367m-131.225 0a2.365 2.365 0 01-2.363 2.37 2.366 2.366 0 01-2.364-2.37 2.366 2.366 0 012.364-2.367A2.365 2.365 0 015.751 57.7m26.243 0a2.364 2.364 0 01-2.36 2.37 2.364 2.364 0 01-2.365-2.37 2.364 2.364 0 114.725 0m13.123 7.64a2.367 2.367 0 01-2.363 2.37 2.367 2.367 0 01-2.363-2.37 2.366 2.366 0 012.363-2.369 2.365 2.365 0 012.363 2.37m26.243-.001A2.366 2.366 0 0169 67.71a2.367 2.367 0 01-2.363-2.37A2.365 2.365 0 0169 62.971a2.364 2.364 0 012.362 2.37m52.491-.001a2.366 2.366 0 01-2.363 2.37 2.368 2.368 0 01-2.364-2.37 2.365 2.365 0 114.727 0m-104.98 0a2.368 2.368 0 01-2.364 2.37 2.367 2.367 0 01-2.363-2.37 2.366 2.366 0 012.363-2.369 2.366 2.366 0 012.364 2.37m39.366 7.678a2.366 2.366 0 01-2.362 2.369 2.366 2.366 0 01-2.363-2.37 2.366 2.366 0 012.363-2.37 2.366 2.366 0 012.362 2.37m26.246.001a2.367 2.367 0 01-2.364 2.369 2.366 2.366 0 01-2.363-2.37 2.366 2.366 0 012.363-2.37 2.368 2.368 0 012.364 2.37m26.245.001a2.366 2.366 0 01-2.364 2.369 2.365 2.365 0 01-2.36-2.37 2.366 2.366 0 012.36-2.37 2.367 2.367 0 012.364 2.37m26.246.001a2.367 2.367 0 01-2.363 2.369 2.367 2.367 0 01-2.363-2.37 2.367 2.367 0 012.363-2.37 2.367 2.367 0 012.363 2.37m-131.225.001a2.367 2.367 0 01-2.363 2.369 2.367 2.367 0 01-2.364-2.37 2.368 2.368 0 012.364-2.37 2.368 2.368 0 012.363 2.37m26.243.001a2.365 2.365 0 01-2.36 2.369 2.366 2.366 0 01-2.365-2.37 2.367 2.367 0 012.364-2.37 2.366 2.366 0 012.361 2.37m13.123 7.638a2.365 2.365 0 01-2.363 2.367 2.365 2.365 0 01-2.363-2.367 2.366 2.366 0 012.363-2.368 2.365 2.365 0 012.363 2.368m26.243 0A2.364 2.364 0 0169 83.023a2.365 2.365 0 01-2.363-2.367A2.365 2.365 0 0169 78.288a2.364 2.364 0 012.362 2.368m52.491 0a2.364 2.364 0 11-4.727 0 2.364 2.364 0 114.727 0m-104.98 0a2.366 2.366 0 01-2.364 2.367 2.365 2.365 0 01-2.363-2.367 2.366 2.366 0 012.363-2.368 2.366 2.366 0 012.364 2.368m47.766 76.397a2.368 2.368 0 012.364-2.37 2.367 2.367 0 012.362 2.37 2.366 2.366 0 01-2.362 2.37 2.366 2.366 0 01-2.364-2.37m13.123-7.64c0-1.31 1.057-2.37 2.363-2.37a2.365 2.365 0 012.362 2.37 2.366 2.366 0 01-2.362 2.369 2.366 2.366 0 01-2.363-2.369m-26.246 0a2.367 2.367 0 012.363-2.37 2.366 2.366 0 012.364 2.37 2.366 2.366 0 01-2.364 2.369 2.367 2.367 0 01-2.363-2.369m-13.122-7.639a2.366 2.366 0 012.362-2.371 2.366 2.366 0 012.363 2.37 2.366 2.366 0 01-2.363 2.37 2.366 2.366 0 01-2.362-2.37m26.245.001a2.367 2.367 0 012.364-2.371 2.367 2.367 0 012.362 2.37 2.367 2.367 0 01-2.362 2.37 2.366 2.366 0 01-2.364-2.37m-13.123-7.639c0-1.31 1.06-2.37 2.363-2.37a2.365 2.365 0 012.364 2.37 2.366 2.366 0 01-2.364 2.369 2.367 2.367 0 01-2.363-2.37m-26.245.001c0-1.31 1.057-2.37 2.363-2.37a2.366 2.366 0 012.364 2.37 2.367 2.367 0 01-2.364 2.369 2.366 2.366 0 01-2.363-2.37m78.736-.002a2.364 2.364 0 012.363-2.367 2.364 2.364 0 012.361 2.367 2.366 2.366 0 01-2.36 2.372 2.366 2.366 0 01-2.364-2.372m-26.245.003c0-1.31 1.057-2.37 2.363-2.37a2.365 2.365 0 012.362 2.37 2.366 2.366 0 01-2.362 2.369 2.366 2.366 0 01-2.363-2.37m-13.123-7.64a2.366 2.366 0 012.364-2.37 2.367 2.367 0 012.362 2.37 2.367 2.367 0 01-2.362 2.37 2.366 2.366 0 01-2.364-2.37m-26.245 0a2.366 2.366 0 012.362-2.37 2.366 2.366 0 012.363 2.37 2.366 2.366 0 01-2.363 2.37 2.366 2.366 0 01-2.362-2.37m-26.246 0a2.367 2.367 0 012.363-2.37 2.367 2.367 0 012.363 2.37 2.367 2.367 0 01-2.363 2.37 2.367 2.367 0 01-2.363-2.37m104.98 0c0-1.31 1.06-2.37 2.363-2.37a2.366 2.366 0 012.364 2.37 2.367 2.367 0 01-2.364 2.37 2.367 2.367 0 01-2.363-2.37m-39.366-7.639a2.366 2.366 0 012.363-2.37 2.366 2.366 0 012.362 2.37 2.366 2.366 0 01-2.362 2.37 2.366 2.366 0 01-2.363-2.37m-26.246 0a2.368 2.368 0 012.363-2.37 2.367 2.367 0 012.364 2.37 2.366 2.366 0 01-2.364 2.37 2.367 2.367 0 01-2.363-2.37m-26.245 0a2.366 2.366 0 012.363-2.37 2.368 2.368 0 012.364 2.37 2.367 2.367 0 01-2.364 2.37 2.366 2.366 0 01-2.363-2.37m-26.247 0a2.368 2.368 0 012.364-2.37 2.368 2.368 0 012.363 2.37 2.367 2.367 0 01-2.363 2.37 2.367 2.367 0 01-2.364-2.37m131.227 0a2.365 2.365 0 012.362-2.37 2.365 2.365 0 012.363 2.37 2.364 2.364 0 01-2.363 2.367 2.364 2.364 0 01-2.362-2.367m-26.244 0a2.366 2.366 0 012.363-2.37 2.366 2.366 0 012.361 2.37 2.365 2.365 0 01-2.36 2.37 2.366 2.366 0 01-2.364-2.37m-39.368-7.64a2.368 2.368 0 012.364-2.37 2.366 2.366 0 012.362 2.37 2.364 2.364 0 01-2.362 2.369 2.366 2.366 0 01-2.364-2.37m-26.245.001a2.366 2.366 0 012.364-2.37 2.367 2.367 0 012.363 2.37 2.366 2.366 0 01-2.363 2.369 2.365 2.365 0 01-2.364-2.37m-26.246.001a2.367 2.367 0 012.363-2.37 2.367 2.367 0 012.363 2.37 2.365 2.365 0 01-2.363 2.369 2.365 2.365 0 01-2.363-2.37m104.982.001a2.366 2.366 0 012.361-2.37 2.368 2.368 0 012.364 2.37 2.366 2.366 0 01-2.364 2.369 2.364 2.364 0 01-2.36-2.37m-39.369-7.616c0-1.31 1.057-2.37 2.363-2.37a2.365 2.365 0 012.362 2.37 2.364 2.364 0 01-2.362 2.369 2.365 2.365 0 01-2.363-2.37m-26.246.001c0-1.31 1.06-2.37 2.363-2.37a2.366 2.366 0 012.364 2.37 2.365 2.365 0 01-2.364 2.369 2.366 2.366 0 01-2.363-2.37m-26.245.001c0-1.31 1.057-2.37 2.363-2.37a2.367 2.367 0 012.364 2.37 2.365 2.365 0 11-4.727 0m-26.247 0c0-1.31 1.059-2.37 2.364-2.37a2.367 2.367 0 012.363 2.37 2.366 2.366 0 01-2.363 2.369 2.366 2.366 0 01-2.364-2.37m131.227.001c0-1.31 1.057-2.37 2.362-2.37a2.365 2.365 0 012.363 2.37 2.365 2.365 0 01-2.363 2.369 2.364 2.364 0 01-2.362-2.37m-26.244.001c0-1.31 1.057-2.37 2.363-2.37a2.365 2.365 0 012.361 2.37 2.364 2.364 0 01-2.36 2.369 2.365 2.365 0 01-2.364-2.37m-8.399-84.071c0 1.31-1.059 2.37-2.363 2.37a2.366 2.366 0 01-2.364-2.37 2.366 2.366 0 012.364-2.367 2.365 2.365 0 012.363 2.367m0 15.281a2.366 2.366 0 01-2.363 2.369 2.366 2.366 0 01-2.364-2.37 2.368 2.368 0 012.364-2.37 2.367 2.367 0 012.363 2.37m-.002 15.28a2.365 2.365 0 01-2.36 2.37 2.366 2.366 0 01-2.365-2.37c0-1.31 1.057-2.37 2.364-2.37a2.365 2.365 0 012.361 2.37m0 15.255a2.366 2.366 0 01-2.36 2.37 2.366 2.366 0 01-2.365-2.37 2.365 2.365 0 012.364-2.369 2.365 2.365 0 012.361 2.37m0 15.315a2.364 2.364 0 11-4.725 0 2.365 2.365 0 012.364-2.368 2.364 2.364 0 012.361 2.368m-4.723 61.118a2.367 2.367 0 012.364-2.371 2.365 2.365 0 012.363 2.37 2.366 2.366 0 01-2.363 2.37 2.367 2.367 0 01-2.364-2.37m0-15.28a2.368 2.368 0 012.364-2.37 2.366 2.366 0 012.363 2.37 2.366 2.366 0 01-2.363 2.37 2.367 2.367 0 01-2.364-2.37m.002-15.279a2.366 2.366 0 012.362-2.37 2.366 2.366 0 012.363 2.37 2.365 2.365 0 01-2.363 2.369 2.364 2.364 0 01-2.362-2.37m0-15.254c0-1.31 1.057-2.37 2.362-2.37a2.365 2.365 0 012.363 2.37 2.364 2.364 0 01-2.363 2.367 2.364 2.364 0 01-2.362-2.367m-26.246 0c0-1.31 1.059-2.37 2.364-2.37a2.365 2.365 0 012.362 2.37 2.364 2.364 0 11-4.726 0m-26.245 0c0-1.31 1.057-2.37 2.364-2.37a2.366 2.366 0 012.363 2.37 2.364 2.364 0 11-4.727 0m-26.246 0c0-1.31 1.058-2.37 2.363-2.37a2.365 2.365 0 012.363 2.37 2.365 2.365 0 01-2.363 2.367 2.365 2.365 0 01-2.363-2.367m104.982 0c0-1.31 1.057-2.37 2.361-2.37a2.366 2.366 0 012.364 2.37 2.366 2.366 0 01-2.364 2.367 2.364 2.364 0 01-2.36-2.367M79.762 88.28a2.365 2.365 0 012.363-2.369 2.364 2.364 0 012.362 2.37 2.364 2.364 0 01-2.362 2.368 2.365 2.365 0 01-2.363-2.369m-26.246 0a2.366 2.366 0 012.363-2.369 2.365 2.365 0 012.364 2.37 2.365 2.365 0 01-2.364 2.368 2.366 2.366 0 01-2.363-2.369m-26.245 0a2.365 2.365 0 114.727 0 2.365 2.365 0 11-4.727 0m-26.247 0a2.366 2.366 0 012.364-2.369 2.366 2.366 0 012.363 2.37 2.366 2.366 0 01-2.363 2.368 2.366 2.366 0 01-2.364-2.369m131.227 0a2.364 2.364 0 012.362-2.369 2.365 2.365 0 012.363 2.37 2.365 2.365 0 01-2.363 2.368 2.364 2.364 0 01-2.362-2.369m-26.244 0a2.365 2.365 0 012.363-2.369 2.365 2.365 0 012.361 2.37 2.364 2.364 0 01-2.36 2.368 2.365 2.365 0 01-2.364-2.369" fill="#FFF" fill-rule="evenodd"/><path stroke-linecap="null" stroke-linejoin="null" stroke-dasharray="null" stroke-width="5" stroke="#000" fill="red" d="M2.5-128.35h1v16h-1zm703.5-60h19v7h-19zm-870 157h4v1h-4z"/></svg>